<?xml version="1.0" encoding="UTF-8"?>
<svg version="1.1" xmlns="http://www.w3.org/2000/svg" width="512" height="512">
<path d="M0 0 C3.38386719 0.02143538 6.7656116 0.00013269 10.14941406 -0.02539062 C25.44360324 -0.04562047 36.89413163 0.99841229 49.39160156 10.52148438 C50.42285156 11.26398437 51.45410156 12.00648437 52.51660156 12.77148438 C61.90872436 21.75525401 67.80940988 33.71183087 68.58143044 46.72001076 C68.65824067 50.55204861 68.67380119 54.38157133 68.66625977 58.21411133 C68.67061422 59.68363706 68.67579979 61.15316052 68.68174744 62.62268066 C68.69507126 66.59186098 68.69572342 70.56094568 68.69318414 74.53014398 C68.69210971 77.85484135 68.6970099 81.17951975 68.70178956 84.50421304 C68.71286231 92.35462994 68.71333503 100.20499899 68.70727539 108.05541992 C68.70123975 116.12781413 68.71354131 124.20003385 68.73484546 132.27239829 C68.75251676 139.22643649 68.75845405 146.18041943 68.75520772 153.13447922 C68.75340319 157.27744337 68.75594726 161.42028309 68.76992226 165.5632267 C68.78258605 169.46298056 68.78047662 173.36246448 68.76751137 177.26221466 C68.76516435 178.68429599 68.76781207 180.10639682 68.77613449 181.52845573 C68.86962612 198.76117253 65.16829454 212.33231731 53.13769531 224.97070312 C42.00477578 235.31180761 29.87518857 238.65044329 15.04003906 238.72460938 C13.69711288 238.73315948 13.69711288 238.73315948 12.32705688 238.74188232 C10.43598601 238.75130015 8.54489897 238.75785347 6.65380859 238.76171875 C3.79657416 238.771383 0.94007252 238.80242005 -1.91699219 238.83398438 C-19.54354465 238.9366334 -34.0702797 236.52079652 -47.28417969 223.97070312 C-56.54991167 214.20664606 -61.70338843 202.71348584 -61.75556946 189.19921875 C-61.76272476 187.92376694 -61.76988007 186.64831512 -61.7772522 185.33421326 C-61.78009216 183.92788721 -61.78280393 182.52156089 -61.78540039 181.11523438 C-61.79166984 179.62821801 -61.79831706 178.14120319 -61.80531311 176.65419006 C-61.82630599 171.77663249 -61.8367139 166.8990748 -61.84667969 162.02148438 C-61.85072961 160.33747339 -61.8548466 158.65346256 -61.85902977 156.9694519 C-61.87807426 149.05277655 -61.8923045 141.13611046 -61.90064174 133.21941662 C-61.91039908 124.10654522 -61.93668227 114.99391768 -61.97714263 105.88113213 C-62.00740026 98.82186119 -62.02211988 91.76265975 -62.02542275 84.70332527 C-62.02776304 80.49481492 -62.03658882 76.28656529 -62.06188393 72.078125 C-62.08533805 68.11190355 -62.08932916 64.14611127 -62.07912254 60.17983818 C-62.07863119 58.73397828 -62.08483183 57.288096 -62.09867859 55.84230232 C-62.24529398 39.60895345 -58.06802282 25.64459256 -46.89746094 13.65820312 C-42.87546484 9.90388254 -38.55185622 6.92878431 -33.60839844 4.52148438 C-32.89748047 4.16844238 -32.1865625 3.81540039 -31.45410156 3.45166016 C-21.39354725 -0.72908387 -10.71332249 -0.08080835 0 0 Z M-39.92089844 29.27148438 C-46.48585515 39.04142947 -47.17195106 48.80649345 -46.99902344 60.25195312 C-46.99499512 61.55797485 -46.9909668 62.86399658 -46.98681641 64.20959473 C-46.96604201 69.04286952 -46.91019781 73.87594251 -46.85839844 78.70898438 C-46.77589844 89.53710938 -46.69339844 100.36523438 -46.60839844 111.52148438 C-13.60839844 111.52148438 19.39160156 111.52148438 53.39160156 111.52148438 C53.47410156 100.87898438 53.55660156 90.23648438 53.64160156 79.27148438 C53.67801758 75.93506836 53.71443359 72.59865234 53.75195312 69.16113281 C53.76364752 66.48438152 53.77383756 63.80762306 53.78222656 61.13085938 C53.7979068 60.11309418 53.7979068 60.11309418 53.81390381 59.07476807 C53.99197631 46.88665451 52.49572084 36.06736865 44.37597656 26.49023438 C37.03760285 19.20964314 28.31992139 15.21920258 18.00758362 15.10464478 C17.1146611 15.11071747 16.22173859 15.11679016 15.30175781 15.12304688 C13.88581581 15.11874161 13.88581581 15.11874161 12.44126892 15.11434937 C10.45538733 15.11231826 8.4694853 15.11778102 6.48364258 15.13037109 C3.46617265 15.14642017 0.45004564 15.13049888 -2.56738281 15.11132812 C-4.50683886 15.11331108 -6.44629408 15.11715582 -8.38574219 15.12304688 C-9.27664047 15.11697418 -10.16753876 15.11090149 -11.08543396 15.10464478 C-23.1733719 15.23843198 -32.25422749 19.89040711 -39.92089844 29.27148438 Z M-46.60839844 126.52148438 C-46.60839844 132.46148437 -46.60839844 138.40148437 -46.60839844 144.52148438 C-13.60839844 144.52148438 19.39160156 144.52148438 53.39160156 144.52148438 C53.39160156 138.58148438 53.39160156 132.64148438 53.39160156 126.52148438 C20.39160156 126.52148438 -12.60839844 126.52148438 -46.60839844 126.52148438 Z M-46.60839844 159.52148438 C-48.55226557 189.24046668 -48.55226557 189.24046668 -36.60839844 213.52148438 C-25.5112158 223.42702324 -13.93930669 224.01604335 0.25927734 223.91259766 C2.88594502 223.896519 5.51107443 223.91250403 8.13769531 223.93164062 C22.27662479 223.94974886 33.26162709 222.1415368 44.07910156 212.39648438 C57.57915826 198.30946869 53.39160156 177.15489031 53.39160156 159.52148438 C20.39160156 159.52148438 -12.60839844 159.52148438 -46.60839844 159.52148438 Z " fill="#EE6621" transform="translate(252.6083984375,7.478515625)"/>
<path d="M0 0 C3.23352016 0.999226 4.23005556 2.81503198 6.03515625 5.62890625 C6.41139803 8.46629652 6.57024675 10.92325884 6.5390625 13.75390625 C6.54848373 14.53725342 6.55790497 15.32060059 6.56761169 16.12768555 C6.59618789 18.62835842 6.59934632 21.12808384 6.59765625 23.62890625 C6.61830618 37.64607781 6.93677189 50.93317526 13.53515625 63.69140625 C14.04574585 64.69192017 14.04574585 64.69192017 14.56665039 65.71264648 C22.76314243 80.95866871 37.08778369 92.2140988 53.35522461 97.76098633 C64.275413 100.79441263 74.71712392 101.24586882 86.01660156 101.15039062 C89.03141682 101.12893287 92.04385 101.1503073 95.05859375 101.17578125 C115.42888843 101.2055433 133.27491244 97.43439114 149.03515625 83.62890625 C149.6384375 83.108125 150.24171875 82.58734375 150.86328125 82.05078125 C162.42417764 71.32310262 170.26310828 55.44213474 171.14727783 39.62286377 C171.36493708 33.14862438 171.40121554 26.66695783 171.41601562 20.18945312 C171.42551838 17.71303583 171.45921822 15.23785834 171.49609375 12.76171875 C171.49104828 12.0044046 171.48600281 11.24709045 171.48080444 10.46682739 C171.54581808 6.99543505 171.77298514 4.98672009 173.85009766 2.15185547 C177.05613501 -0.08269883 179.22396803 0.08445079 183.03515625 0.62890625 C185.22290039 2.13330078 185.22290039 2.13330078 187.03515625 4.62890625 C187.42200459 7.56820064 187.5730734 10.12300705 187.53125 13.05859375 C187.53270523 13.88537628 187.53416046 14.71215881 187.53565979 15.56399536 C187.53400056 17.31743889 187.52243649 19.07089695 187.50170898 20.82421875 C187.47312908 23.46029495 187.48102417 26.09430914 187.49414062 28.73046875 C187.46475635 53.34474251 180.36039631 74.83078715 162.98046875 92.7734375 C148.35722401 107.27538791 128.09855268 116.79140516 107.34228516 116.71899414 C106.45718262 116.70989014 105.57208008 116.70078613 104.66015625 116.69140625 C101.81390625 116.67078125 98.96765625 116.65015625 96.03515625 116.62890625 C96.03515625 126.52890625 96.03515625 136.42890625 96.03515625 146.62890625 C98.67515625 146.95890625 101.31515625 147.28890625 104.03515625 147.62890625 C111.35995921 150.03767397 118.52543824 153.11918824 124.03515625 158.62890625 C124.47265625 162.00390625 124.47265625 162.00390625 124.03515625 165.62890625 C121.97265625 168.12890625 121.97265625 168.12890625 119.03515625 169.62890625 C114.29599558 169.72368946 111.1344796 168.25444788 106.91015625 166.19140625 C97.28419462 161.65533666 87.24609364 160.33323818 77.03515625 163.62890625 C73.65344304 165.11356083 70.35580838 166.68476639 67.078125 168.38671875 C63.7740006 169.73551408 61.5682716 169.98371699 58.03515625 169.62890625 C55.66015625 168.06640625 55.66015625 168.06640625 54.03515625 165.62890625 C53.53515625 162.12890625 53.53515625 162.12890625 54.03515625 158.62890625 C59.42110892 152.09512761 68.87065967 148.32984304 77.03515625 146.62890625 C78.35515625 146.62890625 79.67515625 146.62890625 81.03515625 146.62890625 C81.03515625 136.72890625 81.03515625 126.82890625 81.03515625 116.62890625 C78.51890625 116.69078125 76.00265625 116.75265625 73.41015625 116.81640625 C51.52988763 116.98041364 31.33708927 108.49215572 15.71875 93.30859375 C14.83316406 92.42429687 13.94757813 91.54 13.03515625 90.62890625 C12.36613281 89.97148437 11.69710937 89.3140625 11.0078125 88.63671875 C2.16013716 79.28747451 -3.48422284 66.87853332 -6.96484375 54.62890625 C-7.15103271 53.99194824 -7.33722168 53.35499023 -7.52905273 52.69873047 C-9.61132543 44.28631174 -9.30136391 35.61315586 -9.28051758 27.00439453 C-9.27732715 24.2395186 -9.30098446 21.47568401 -9.32617188 18.7109375 C-9.32844237 16.94661592 -9.32914953 15.18229149 -9.328125 13.41796875 C-9.33733475 12.59503326 -9.34654449 11.77209778 -9.35603333 10.92422485 C-9.3292542 7.6213217 -9.1972429 5.08659346 -7.68823242 2.11474609 C-5.31940309 0.07243199 -3.04691197 0.09980251 0 0 Z " fill="#F0771E" transform="translate(166.96484375,162.37109375)"/>
<path d="M0 0 C3.5 0.5625 3.5 0.5625 5.68700409 2.69161129 C7.85192471 6.11977467 8.00260588 8.02907949 8.00793457 12.05921936 C8.01921387 13.37292007 8.03049316 14.68662079 8.04211426 16.04013062 C8.03433768 17.48907692 8.02614505 18.93802104 8.01757812 20.38696289 C8.02300027 21.91814337 8.03012345 23.44931862 8.03881836 24.98048401 C8.05704233 29.13334692 8.04998857 33.28581204 8.03730202 37.43868184 C8.02717133 41.78501405 8.03656771 46.13131232 8.04284668 50.47764587 C8.05012212 57.77527988 8.04053733 65.07275191 8.02148438 72.37036133 C7.99970762 80.80871108 8.00677313 89.24667437 8.02879 97.68501478 C8.04693727 104.93016242 8.04950588 112.17519367 8.03903532 119.42035669 C8.03279771 123.74758296 8.0319722 128.07462751 8.04518127 132.40184212 C8.05672973 136.46904932 8.0487329 140.53575772 8.02560425 144.602911 C8.02031207 146.09606726 8.02183969 147.58926546 8.03065491 149.08240509 C8.04157172 151.11917631 8.0254593 153.1560392 8.00793457 155.19276428 C8.00642647 156.33298066 8.00491837 157.47319704 8.00336456 158.64796543 C7.38535137 162.22632779 6.38222866 163.41020074 3.5 165.5625 C-0.37095535 166.11549362 -2.49961284 166.30825965 -5.68700409 163.93215179 C-8.0558554 160.83597672 -8.00284502 159.02535211 -8.00793457 155.14807129 C-8.01417453 154.50635813 -8.0204145 153.86464498 -8.02684355 153.20348597 C-8.04278681 151.05520439 -8.03016556 148.90805542 -8.01757812 146.75976562 C-8.02299871 145.2188806 -8.03012101 143.67800075 -8.03881836 142.13713074 C-8.05706245 137.95321905 -8.04997986 133.76970164 -8.03730202 129.585783 C-8.02717991 125.20874844 -8.0365655 120.83174779 -8.04284668 116.45471191 C-8.0501254 109.10402358 -8.04052954 101.75349597 -8.02148438 94.40283203 C-7.99971514 85.902588 -8.00676636 77.40272773 -8.02879 68.902493 C-8.04693765 61.60641077 -8.04950545 54.31044411 -8.03903532 47.0143466 C-8.03279687 42.65580676 -8.03197434 38.29744734 -8.04518127 33.93891907 C-8.05672999 29.84135778 -8.04873238 25.74429159 -8.02560425 21.64678383 C-8.02031186 20.14234044 -8.02184004 18.63785544 -8.03065491 17.13342857 C-8.0415742 15.08069814 -8.02789415 13.02955759 -8.00793457 10.97692871 C-8.00642647 9.82803917 -8.00491837 8.67914963 -8.00336456 7.49544525 C-7.14609497 2.50040795 -4.88482977 0.78506193 0 0 Z " fill="#F1811D" transform="translate(362.5,338.4375)"/>
<path d="M0 0 C4.45200158 1.31911158 4.45200158 1.31911158 6.375 4 C6.75531673 6.80989742 6.75531673 6.80989742 6.76268005 10.29417419 C6.77258469 11.61353973 6.78248932 12.93290527 6.79269409 14.29225159 C6.78845578 15.75790498 6.7838979 17.22355747 6.77905273 18.68920898 C6.78475383 20.22994483 6.79171708 21.77067644 6.79985046 23.31140137 C6.81782632 27.49943592 6.81660519 31.68726147 6.81090808 35.87532306 C6.80782248 39.3694835 6.81390167 42.86360342 6.81994683 46.3577581 C6.83400509 54.59994904 6.83242008 62.84203635 6.82104492 71.08422852 C6.80956305 79.59182406 6.82363748 88.0991044 6.8504414 96.6066584 C6.87258194 103.90695591 6.87923948 111.20715436 6.87336498 118.50748307 C6.86999016 122.86940401 6.87244513 127.2311229 6.88961601 131.59301567 C6.90505691 135.69464683 6.90116177 139.7958103 6.88231087 143.89742279 C6.87861696 145.40348533 6.88175679 146.90958229 6.89219666 148.41561317 C6.90535494 150.47056543 6.89390815 152.52395756 6.87620544 154.57884216 C6.87599616 155.72903052 6.87578688 156.87921888 6.87557125 158.06426144 C6.2626306 161.65902146 5.27156073 162.84166995 2.375 165 C-1.49733337 165.55319048 -3.62504941 165.74685499 -6.81158352 163.36685848 C-9.17349179 160.28411235 -9.13015588 158.49249061 -9.1396637 154.63026428 C-9.15875038 152.66394295 -9.15875038 152.66394295 -9.17822266 150.65789795 C-9.17204032 149.20690738 -9.16543429 147.75591856 -9.15844727 146.30493164 C-9.16550523 144.77551948 -9.17424974 143.24611431 -9.18455505 141.71672058 C-9.20707347 137.56374734 -9.20410363 133.41115475 -9.19523358 129.25814366 C-9.19012634 125.79135498 -9.19741414 122.32463799 -9.20470566 118.85785669 C-9.22171262 110.67934407 -9.21813105 102.501018 -9.20141602 94.32250977 C-9.18449404 85.88470948 -9.20032824 77.44742649 -9.2326389 69.00968271 C-9.2593287 61.76538357 -9.26661246 54.52124552 -9.25812382 47.27690214 C-9.25319274 42.95013573 -9.2554197 38.62368059 -9.27591133 34.2969532 C-9.29425905 30.22803733 -9.28832166 26.15986586 -9.26371193 22.09099007 C-9.25870101 20.59825004 -9.26220124 19.10545339 -9.27486038 17.61275864 C-9.29078084 15.57412824 -9.27282548 13.53531735 -9.25318909 11.49671936 C-9.25260278 10.35612596 -9.25201647 9.21553255 -9.25141239 8.04037571 C-8.15740913 2.73048564 -5.41824449 0 0 0 Z " fill="#F49E19" transform="translate(150.625,339)"/>
<path d="M0 0 C2.52737004 1.91731521 2.9716847 2.91505409 4 6 C4.09672763 7.79010401 4.13495291 9.58360523 4.14044189 11.37631226 C4.14900711 13.05028328 4.14900711 13.05028328 4.15774536 14.7580719 C4.15886322 15.98307907 4.15998108 17.20808624 4.16113281 18.47021484 C4.16609772 19.75984634 4.17106262 21.04947784 4.17617798 22.37818909 C4.189294 25.91748997 4.19574526 29.45677189 4.20018864 32.99609327 C4.20312037 35.20744678 4.20722535 37.41879512 4.21169281 39.63014603 C4.22536503 46.54942214 4.23503329 53.46868641 4.2388947 60.3879751 C4.24337632 68.37460106 4.26093004 76.36105596 4.2898953 84.3476299 C4.31151016 90.52181867 4.32159886 96.69595929 4.32293582 102.87018549 C4.3239839 106.55751982 4.32989236 110.24469328 4.34775543 113.93198776 C4.36729405 118.04509622 4.36294796 122.15784639 4.35644531 126.27099609 C4.3656601 127.4919548 4.37487488 128.71291351 4.3843689 129.97087097 C4.37879974 131.0924913 4.37323059 132.21411163 4.36749268 133.36972046 C4.36895924 134.34200277 4.3704258 135.31428509 4.3719368 136.3160305 C3.88894411 139.80140125 2.50387762 142.49612238 0 145 C-7.27272727 145.46920821 -7.27272727 145.46920821 -9.9375 143.75 C-12.09097642 140.20309766 -12.12657304 136.65167585 -12.13371277 132.57936096 C-12.13797775 131.47883392 -12.14224274 130.37830688 -12.14663696 129.24443054 C-12.14618378 128.04172012 -12.14573059 126.8390097 -12.14526367 125.59985352 C-12.15030159 123.69444794 -12.15030159 123.69444794 -12.15544128 121.75054932 C-12.16426926 118.26915171 -12.16661887 114.78777869 -12.16725707 111.30637097 C-12.16796817 109.13069163 -12.1701036 106.95501853 -12.17275429 104.77934074 C-12.18200317 97.18744383 -12.18608968 89.59556447 -12.18530273 82.00366211 C-12.1847018 74.92931061 -12.1952578 67.85503533 -12.2110464 60.78070313 C-12.22412439 54.70415786 -12.22948653 48.6276375 -12.22884732 42.55107826 C-12.22859245 38.92304328 -12.23143809 35.29507608 -12.24202538 31.66705513 C-12.25351009 27.6211641 -12.24895796 23.57544383 -12.24291992 19.52954102 C-12.24853943 18.32885483 -12.25415894 17.12816864 -12.25994873 15.89109802 C-12.25575424 14.78775116 -12.25155975 13.6844043 -12.24723816 12.54762268 C-12.24805531 11.11327047 -12.24805531 11.11327047 -12.24888897 9.64994144 C-11.88669582 5.79364104 -10.90118484 2.96555519 -8.25 0.125 C-5.1054236 -1.4472882 -3.32144655 -0.98936706 0 0 Z " fill="#F1791D" transform="translate(409,349)"/>
<path d="M0 0 C1.6617384 1.20611 1.6617384 1.20611 3 3 C3.39034748 5.46352196 3.39034748 5.46352196 3.41218567 8.45223999 C3.42761414 9.58504898 3.4430426 10.71785797 3.4589386 11.88499451 C3.4606456 13.12870316 3.4623526 14.3724118 3.46411133 15.65380859 C3.47751556 16.96294724 3.4909198 18.27208588 3.50473022 19.62089539 C3.54091205 23.21390776 3.55837198 26.80679144 3.57197404 30.39995146 C3.58879222 34.1599852 3.62086858 37.91989217 3.65080261 41.67984009 C3.69870672 47.99648857 3.73469344 54.31311977 3.76342773 60.62988281 C3.79675877 67.92984941 3.84778139 75.22952565 3.90858442 82.52931154 C3.96675777 89.55211083 4.01337082 96.57493938 4.05438805 103.59785843 C4.07198194 106.58580882 4.09343391 109.57369464 4.11795998 112.56159592 C4.15152571 116.73686165 4.1680936 120.91202785 4.18286133 125.08740234 C4.19468948 126.32706253 4.20651764 127.56672272 4.21870422 128.84394836 C4.22003357 129.982397 4.22136292 131.12084564 4.22273254 132.29379272 C4.22805402 133.28082373 4.23337549 134.26785473 4.23885822 135.28479576 C3.86968118 139.48139014 2.96220978 142.17143047 -0.25 144.9375 C-3 146 -3 146 -6.125 145.5 C-9.54799159 143.71409134 -10.32901831 142.43423636 -12 139 C-12.37752342 136.28758907 -12.37752342 136.28758907 -12.38095093 133.30052185 C-12.3894104 132.16351837 -12.39786987 131.02651489 -12.40658569 129.85505676 C-12.400513 128.61696762 -12.39444031 127.37887848 -12.38818359 126.10327148 C-12.39344055 124.7922345 -12.39869751 123.48119751 -12.40411377 122.13043213 C-12.41777059 118.54164619 -12.41249597 114.95311947 -12.40297651 111.3643291 C-12.39537298 107.60657228 -12.4024273 103.84883742 -12.40713501 100.09107971 C-12.41258988 93.78211487 -12.40540734 87.47325547 -12.39111328 81.16430664 C-12.37478014 73.87116602 -12.38008105 66.57827691 -12.3965925 59.28514236 C-12.41020663 53.02089009 -12.41212762 46.75671353 -12.40427649 40.49245125 C-12.39960046 36.75210672 -12.39897328 33.01188043 -12.40888596 29.2715435 C-12.4191615 25.10332208 -12.40491949 20.93553441 -12.38818359 16.76733398 C-12.39425629 15.52722061 -12.40032898 14.28710724 -12.40658569 13.00941467 C-12.39812622 11.87523102 -12.38966675 10.74104736 -12.38095093 9.57249451 C-12.37981985 8.58713935 -12.37868877 7.60178419 -12.37752342 6.58656979 C-11.93377276 3.5462497 -11.12712576 2.19172944 -9 0 C-5.45026831 -1.1832439 -3.60040463 -0.90010116 0 0 Z " fill="#F5A419" transform="translate(111,349)"/>
<path d="M0 0 C2.60954893 2.02955203 3.84633541 3.23337028 4.50336456 6.51127625 C4.50487267 7.4610585 4.50638077 8.41084076 4.50793457 9.3894043 C4.51921387 10.48296234 4.53049316 11.57652039 4.54211426 12.70321655 C4.53401733 13.89814728 4.52592041 15.093078 4.51757812 16.32421875 C4.5245874 17.58634186 4.53159668 18.84846497 4.53881836 20.14883423 C4.55704723 23.60758971 4.54998643 27.06586772 4.53730202 30.5246315 C4.52717189 34.1449334 4.53656772 37.76519454 4.54284668 41.38549805 C4.55012309 47.46508115 4.54053571 53.54446985 4.52148438 59.62402344 C4.49971544 66.65194241 4.50676683 73.67939723 4.52879 80.70730495 C4.54694434 86.74225811 4.54950222 92.77707155 4.53903532 98.81204319 C4.53280049 102.41606314 4.53196421 106.01986494 4.54518127 109.62387085 C4.55888599 113.64145377 4.5398898 117.65823704 4.51757812 121.67578125 C4.52567505 122.87071198 4.53377197 124.0656427 4.54211426 125.29678345 C4.53083496 126.39034149 4.51955566 127.48389954 4.50793457 128.6105957 C4.50642647 129.56037796 4.50491837 130.51016022 4.50336456 131.48872375 C3.84696571 134.76348518 2.59790677 135.96276535 0 138 C-3.45238782 138.50347322 -5.26782014 138.41556154 -8.3125 136.6875 C-11.24067772 133.75932228 -11.12774157 130.81698121 -11.14044189 126.88943481 C-11.14615204 125.83235321 -11.15186218 124.77527161 -11.15774536 123.68615723 C-11.15886322 122.52660522 -11.15998108 121.36705322 -11.16113281 120.17236328 C-11.16609772 118.95100677 -11.17106262 117.72965027 -11.17617798 116.47128296 C-11.18828708 113.11997611 -11.19574475 109.76873167 -11.20018864 106.41741037 C-11.2031208 104.32331352 -11.20722586 102.22922213 -11.21169281 100.13512802 C-11.22536439 93.582132 -11.23503295 87.02914848 -11.2388947 80.47613919 C-11.24337609 72.91343286 -11.26092902 65.3509072 -11.2898953 57.78825581 C-11.31151339 51.94102805 -11.32159903 46.09385112 -11.32293582 40.24658382 C-11.32398368 36.75486547 -11.32988728 33.26331703 -11.34775543 29.77164078 C-11.36730083 25.87650981 -11.36294662 21.98160464 -11.35644531 18.08642578 C-11.3656601 16.93092224 -11.37487488 15.7754187 -11.3843689 14.5848999 C-11.37879974 13.52217865 -11.37323059 12.4594574 -11.36749268 11.36453247 C-11.36895924 10.44387056 -11.3704258 9.52320866 -11.3719368 8.5746479 C-10.9197567 5.44453399 -9.83657368 3.55328754 -8 1 C-5.15916359 -0.42041821 -3.14522722 -0.31452272 0 0 Z " fill="#F2871D" transform="translate(323,354)"/>
<path d="M0 0 C2.63043467 3.4798993 3.37562825 6.03080099 3.38095093 10.35107422 C3.3894104 11.41090515 3.39786987 12.47073608 3.40658569 13.56268311 C3.400513 14.71504456 3.39444031 15.86740601 3.38818359 17.0546875 C3.39344055 18.27633606 3.39869751 19.49798462 3.40411377 20.75665283 C3.41504409 24.09975756 3.41249794 27.44230422 3.40297651 30.7853775 C3.39536876 34.28775266 3.40242862 37.79010435 3.40713501 41.29248047 C3.41258933 47.17354603 3.40540951 53.05449849 3.39111328 58.93554688 C3.3747873 65.72993726 3.38007604 72.52405755 3.3965925 79.31844139 C3.41021666 85.15723669 3.41212251 90.99595079 3.40427649 96.83475685 C3.39960505 100.31971284 3.39896045 103.80454197 3.40888596 107.28948975 C3.41917942 111.17487038 3.40490296 115.0599497 3.38818359 118.9453125 C3.39425629 120.09767395 3.40032898 121.2500354 3.40658569 122.43731689 C3.39389648 124.02706329 3.39389648 124.02706329 3.38095093 125.64892578 C3.37981985 126.56699005 3.37868877 127.48505432 3.37752342 128.43093872 C2.87596907 131.8440352 1.45384885 134.54615115 -1 137 C-7.23193268 137.58791818 -7.23193268 137.58791818 -10.19830227 135.31730652 C-12.38635962 132.50307221 -12.50422757 131.14188497 -12.5146637 127.6105957 C-12.52738815 126.51703766 -12.54011261 125.42347961 -12.55322266 124.29678345 C-12.54669678 123.10185272 -12.5401709 121.906922 -12.53344727 120.67578125 C-12.54206284 119.41365814 -12.55067841 118.15153503 -12.55955505 116.85116577 C-12.58205409 113.3924293 -12.57910865 109.93415028 -12.57023358 106.4753685 C-12.56512343 103.5875618 -12.57241634 100.69984104 -12.57970566 97.81204319 C-12.59670587 90.99994455 -12.59313728 84.18806991 -12.57641602 77.37597656 C-12.55948793 70.34798653 -12.57533771 63.32061729 -12.6076389 56.29269505 C-12.63432554 50.25773554 -12.64161358 44.2229694 -12.63312382 38.18795681 C-12.62819255 34.58387408 -12.63042047 30.98016504 -12.65091133 27.37612915 C-12.67266085 23.35843061 -12.65388086 19.34191142 -12.63110352 15.32421875 C-12.64279572 14.12928802 -12.65448792 12.9343573 -12.66653442 11.70321655 C-12.57376732 3.68626322 -12.57376732 3.68626322 -9.68711853 0.23364258 C-5.9647225 -1.47529069 -3.87925763 -1.22124777 0 0 Z " fill="#F3981A" transform="translate(197,355)"/>
<path d="M0 0 C2.40461599 2.11827423 3.7941616 3.85359141 4.36956978 7.05830383 C4.52898494 9.63330584 4.55177565 12.1798339 4.53344727 14.75976562 C4.54206284 15.73757492 4.55067841 16.71538422 4.55955505 17.7228241 C4.58223443 20.95090295 4.57547269 24.17811515 4.56640625 27.40625 C4.57164069 29.65157327 4.5779165 31.89689433 4.58518982 34.14221191 C4.59559751 38.8463781 4.59102665 43.55024185 4.57641602 48.25439453 C4.55922204 54.28398579 4.58272997 60.31262469 4.61790562 66.34210968 C4.63986008 70.97811198 4.63844289 75.61388568 4.6301403 80.24992371 C4.62931984 82.47308904 4.63620141 84.696271 4.65091133 86.91938782 C4.66832188 90.02693341 4.65384306 93.13275819 4.63110352 96.24023438 C4.64279572 97.15882736 4.65448792 98.07742035 4.66653442 99.02384949 C4.60001975 103.48906709 4.42599953 105.42718539 1.68711853 109.10998535 C-1 111 -1 111 -4.625 111 C-7.94974394 110.01489068 -8.96253235 109.64169177 -11 107 C-11.38031673 105.03344059 -11.38031673 105.03344059 -11.38768005 102.75587463 C-11.39758469 101.89087341 -11.40748932 101.02587219 -11.41769409 100.13465881 C-11.41319244 99.18860275 -11.4086908 98.24254669 -11.40405273 97.26782227 C-11.41091599 96.26919159 -11.41777924 95.27056091 -11.42485046 94.2416687 C-11.44318582 90.93310417 -11.43927125 87.62501079 -11.43359375 84.31640625 C-11.43815237 82.02098943 -11.44345698 79.72557397 -11.44947815 77.43016052 C-11.45842256 72.61573752 -11.45597101 67.80148027 -11.44604492 62.98706055 C-11.43455488 56.81172011 -11.45476104 50.63695143 -11.48396206 44.46168613 C-11.50229214 39.7202337 -11.50203792 34.97891907 -11.49632454 30.23744011 C-11.49617093 27.96042008 -11.502248 25.68339094 -11.51461601 23.4064045 C-11.52946321 20.22442703 -11.5188944 17.04351594 -11.50170898 13.86157227 C-11.51137695 12.91754044 -11.52104492 11.97350861 -11.53100586 11.00086975 C-11.45908027 4.65374042 -11.45908027 4.65374042 -9.18739319 1.41880798 C-5.93177002 -0.69288559 -3.78734327 -0.60868017 0 0 Z " fill="#F5A918" transform="translate(68,366)"/>
<path d="M0 0 C2.06455284 1.7887194 2.89433879 3.25290335 3.27781677 5.96435356 C3.40687185 8.5294288 3.42808379 11.07788728 3.41992188 13.64624023 C3.42839142 14.6239035 3.43686096 15.60156677 3.44558716 16.6088562 C3.46899574 19.84223419 3.46997839 23.07513741 3.46875 26.30859375 C3.47584911 28.55534557 3.48354774 30.80209558 3.49182129 33.04884338 C3.50527491 37.75893188 3.5068308 42.46885273 3.50097656 47.17895508 C3.49507904 53.21638897 3.52567089 59.25301912 3.56609344 65.29029751 C3.59193577 69.93057086 3.59485099 74.57064979 3.59120178 79.21098518 C3.5928962 81.43695153 3.60256949 83.66292655 3.62034607 85.88882256 C3.64246707 89.00121827 3.63286804 92.1119754 3.61523438 95.22436523 C3.63512924 96.60461128 3.63512924 96.60461128 3.65542603 98.01274109 C3.59634431 102.4979614 3.45191952 104.40775614 0.6529541 108.07582092 C-2 110 -2 110 -5.0625 110.5625 C-8.8309946 109.84087337 -9.76063884 109.12367098 -12 106 C-12.60881826 102.72330816 -12.55647006 99.47922509 -12.53344727 96.15429688 C-12.54206284 95.15552017 -12.55067841 94.15674347 -12.55955505 93.12770081 C-12.58226801 89.82445401 -12.57546647 86.52205185 -12.56640625 83.21875 C-12.57163923 80.92476142 -12.57791451 78.630775 -12.58518982 76.33679199 C-12.59560374 71.52829872 -12.59101776 66.7201012 -12.57641602 61.91162109 C-12.55922192 55.74402708 -12.58272693 49.57736408 -12.61790562 43.40987396 C-12.63984559 38.67268682 -12.6384464 33.93572364 -12.6301403 29.19850159 C-12.62931902 26.92427041 -12.63621601 24.65002308 -12.65091133 22.37583923 C-12.66829492 19.19854151 -12.6538654 16.02293229 -12.63110352 12.84570312 C-12.64279572 11.90324234 -12.65448792 10.96078156 -12.66653442 9.98976135 C-12.57392335 3.64898014 -12.57392335 3.64898014 -9.68711853 0.38464355 C-5.99563412 -1.51753904 -3.93622116 -1.16628775 0 0 Z " fill="#F28D1C" transform="translate(282,370)"/>
<path d="M0 0 C2.02517166 1.56047711 2.890199 2.43223589 3.38031673 4.96655941 C3.38396158 6.09395456 3.38396158 6.09395456 3.38768005 7.24412537 C3.402537 8.5416272 3.402537 8.5416272 3.41769409 9.86534119 C3.41094162 11.28442528 3.41094162 11.28442528 3.40405273 12.73217773 C3.41091599 13.73080841 3.41777924 14.72943909 3.42485046 15.7583313 C3.44318582 19.06689583 3.43927125 22.37498921 3.43359375 25.68359375 C3.43815237 27.97901057 3.44345698 30.27442603 3.44947815 32.56983948 C3.45842256 37.38426248 3.45597101 42.19851973 3.44604492 47.01293945 C3.43455488 53.18827989 3.45476104 59.36304857 3.48396206 65.53831387 C3.50229214 70.2797663 3.50203792 75.02108093 3.49632454 79.76255989 C3.49617093 82.03957992 3.502248 84.31660906 3.51461601 86.5935955 C3.52946321 89.77557297 3.5188944 92.95648406 3.50170898 96.13842773 C3.51621094 97.55447548 3.51621094 97.55447548 3.53100586 98.99913025 C3.45893705 105.35889797 3.45893705 105.35889797 1.15223694 108.58119202 C-1.8478941 110.55895283 -3.47425359 110.64758608 -7 110 C-9.75805328 107.99259712 -11.6889061 106.38781703 -12.45780945 102.95767212 C-12.63786218 100.4032905 -12.65258555 97.89258615 -12.61523438 95.33203125 C-12.62078339 94.36397552 -12.6263324 93.3959198 -12.63204956 92.39852905 C-12.64384796 89.20268049 -12.6195678 86.00824913 -12.59375 82.8125 C-12.59203889 80.58960027 -12.59210458 78.36669852 -12.59387207 76.14379883 C-12.59221871 71.48661985 -12.573517 66.82992215 -12.54199219 62.17285156 C-12.50231496 56.2039728 -12.49794694 50.23572449 -12.50545502 44.26673889 C-12.50852493 39.6770653 -12.49640333 35.08753338 -12.47932434 30.49789429 C-12.47229431 28.29707732 -12.46916981 26.09624429 -12.47001648 23.89541626 C-12.46821827 20.81930539 -12.4468337 17.74394911 -12.41992188 14.66796875 C-12.42285248 13.7587265 -12.42578308 12.84948425 -12.42880249 11.91268921 C-12.36487193 7.17519056 -12.2030814 3.77572429 -9 0 C-5.45026831 -1.1832439 -3.60040463 -0.90010116 0 0 Z " fill="#F3931B" transform="translate(239,370)"/>
<path d="M0 0 C3.76461077 0.72088291 4.69726799 1.44576393 6.9375 4.5625 C7.54540532 7.8034859 7.49399266 11.01091404 7.47094727 14.30053711 C7.47956284 15.28795395 7.48817841 16.27537079 7.49705505 17.29270935 C7.51976889 20.55868702 7.51296573 23.82381037 7.50390625 27.08984375 C7.50913961 29.35901648 7.51541503 31.62818702 7.52268982 33.89735413 C7.53310422 38.65457389 7.52851772 43.41149472 7.51391602 48.16870117 C7.49673168 54.26669871 7.52021458 60.36375374 7.55540562 66.46164608 C7.57736132 71.14826203 7.5759424 75.83465187 7.5676403 80.52130318 C7.5668197 82.76958817 7.57370389 85.01788959 7.58841133 87.26612663 C7.60582163 90.40969715 7.59134251 93.55156646 7.56860352 96.69506836 C7.58029572 97.62458313 7.59198792 98.5540979 7.60403442 99.51177979 C7.53792683 104.00117756 7.37512394 105.97352066 4.62461853 109.67530823 C1.9375 111.5625 1.9375 111.5625 -1.6875 111.625 C-5.0625 110.5625 -5.0625 110.5625 -6.74719238 109.09898376 C-8.79698423 105.14609573 -8.49637339 101.30645612 -8.48242188 96.91625977 C-8.49089142 95.9385965 -8.49936096 94.96093323 -8.50808716 93.9536438 C-8.53149574 90.72026581 -8.53247839 87.48736259 -8.53125 84.25390625 C-8.53834911 82.00715443 -8.54604774 79.76040442 -8.55432129 77.51365662 C-8.56777491 72.80356812 -8.5693308 68.09364727 -8.56347656 63.38354492 C-8.55757904 57.34611103 -8.58817089 51.30948088 -8.62859344 45.27220249 C-8.65443577 40.63192914 -8.65735099 35.99185021 -8.65370178 31.35151482 C-8.6553962 29.12554847 -8.66506949 26.89957345 -8.68284607 24.67367744 C-8.70496707 21.56128173 -8.69536804 18.4505246 -8.67773438 15.33813477 C-8.69099762 14.41797073 -8.70426086 13.4978067 -8.71792603 12.54975891 C-8.65884431 8.0645386 -8.51441952 6.15474386 -5.7154541 2.48667908 C-3.0625 0.5625 -3.0625 0.5625 0 0 Z " fill="#F0751F" transform="translate(448.0625,365.4375)"/>
<path d="M0 0 C1.65834045 1.14332581 1.65834045 1.14332581 3 3 C3.38768005 5.91539001 3.38768005 5.91539001 3.40405273 9.51928711 C3.41091599 10.17654282 3.41777924 10.83379852 3.42485046 11.51097107 C3.44314962 13.68331516 3.43927676 15.85493913 3.43359375 18.02734375 C3.4381543 19.53805273 3.4434595 21.04875963 3.44947815 22.5594635 C3.45841548 25.7261701 3.45597949 28.89262461 3.44604492 32.05932617 C3.43455787 36.1160838 3.45475845 40.17197065 3.48396206 44.22861385 C3.50231584 47.34877545 3.50203326 50.4687281 3.49632454 53.58893013 C3.4961712 55.08445011 3.50222589 56.57998414 3.51461601 58.0754528 C3.52950889 60.16796199 3.51886435 62.25885934 3.50170898 64.35131836 C3.50154282 65.54139999 3.50137665 66.73148163 3.50120544 67.95762634 C2.89659334 71.62769013 1.96052657 72.80793445 -1 75 C-4.5 75.5625 -4.5 75.5625 -8 75 C-10.69967252 72.37146264 -11.88582193 70.70242096 -12.49447632 66.95799255 C-12.49162628 65.82644241 -12.48877625 64.69489227 -12.48583984 63.52905273 C-12.4919931 62.24099228 -12.49814636 60.95293182 -12.50448608 59.62583923 C-12.49069029 58.22841677 -12.47615632 56.83100144 -12.4609375 55.43359375 C-12.45855127 53.99300807 -12.45764813 52.55241923 -12.4581604 51.11183167 C-12.45503806 48.09819958 -12.43851586 45.08504515 -12.41162109 42.0715332 C-12.37761121 38.2123276 -12.36999373 34.35364545 -12.37151146 30.49430752 C-12.3709672 27.5217033 -12.3599916 24.54921307 -12.34550858 21.5766468 C-12.33915363 20.15371627 -12.33520473 18.73077286 -12.33372116 17.3078289 C-12.32937621 15.31902281 -12.31027614 13.33026552 -12.29052734 11.34155273 C-12.27909195 9.64542091 -12.27909195 9.64542091 -12.26742554 7.9150238 C-12.00421119 5.04590327 -11.55253844 3.39832172 -10 1 C-6.61147003 -1.54139747 -3.96754849 -1.09740703 0 0 Z " fill="#F6AF17" transform="translate(26,384)"/>
<path d="M0 0 C3.19617658 0.93247378 4.22403661 2.87030716 6.03515625 5.59375 C6.54981995 8.62902832 6.54981995 8.62902832 6.56860352 12.04882812 C6.59235802 13.97607727 6.59235802 13.97607727 6.61659241 15.94226074 C6.61275097 17.33651087 6.60771194 18.73075814 6.6015625 20.125 C6.60680072 21.56319582 6.61307792 23.0013882 6.62034607 24.4395752 C6.63073795 27.44897669 6.62620637 30.45790497 6.61157227 33.46728516 C6.59437726 37.31784634 6.61789217 41.16691627 6.65306187 45.0173111 C6.67505434 47.98571601 6.67359031 50.95376499 6.66529655 53.92222595 C6.66447818 55.3415643 6.67131993 56.76092908 6.68606758 58.18019104 C6.70354414 60.1662854 6.68563328 62.15259511 6.66625977 64.13867188 C6.66481712 65.83147278 6.66481712 65.83147278 6.66334534 67.55847168 C5.83542413 71.55881383 4.17750524 73.06785098 1.03515625 75.59375 C-2.02734375 76.15625 -2.02734375 76.15625 -4.96484375 75.59375 C-7.89617659 73.38784665 -8.86318569 72.21082593 -9.46604919 68.55137634 C-9.46629845 66.76625389 -9.46629845 66.76625389 -9.46655273 64.94506836 C-9.47195572 64.28606033 -9.4773587 63.62705231 -9.48292542 62.94807434 C-9.49540337 60.77611987 -9.47893192 58.60549335 -9.4609375 56.43359375 C-9.46109249 54.92192007 -9.46258154 53.41024599 -9.46534729 51.89857483 C-9.46673079 48.733555 -9.45418073 45.56898862 -9.43139648 42.40405273 C-9.40298714 38.34620066 -9.40575614 34.28910053 -9.4184866 30.23119259 C-9.42543896 27.11106435 -9.41766008 23.99111013 -9.40522957 20.8710041 C-9.40071243 19.37467681 -9.40038057 17.87833087 -9.40429497 16.38200188 C-9.40720361 14.29195674 -9.39071996 12.20295093 -9.36889648 10.11303711 C-9.3634935 8.92375107 -9.35809052 7.73446503 -9.3525238 6.50914001 C-8.96484375 3.59375 -8.96484375 3.59375 -7.6856842 1.71754456 C-5.26037 0.13369354 -2.837775 0.13122659 0 0 Z " fill="#EF6F20" transform="translate(491.96484375,383.40625)"/>
</svg>
